# xmcd CD database file
#
# Track frame offsets:
#	150
#	13620
#	26191
#	38852
#	48114
#	68737
#	79828
#	95547
#	109326
#	123411
#
# Disc length: 1836 seconds
#
# Revision: 2
# Processed by: cddbd v1.5.2PL0 Copyright (c) Steve Scherf et al.
# Submitted via: CDex 1.51
#
DISCID=7e072a0a
DTITLE=Various Artist - Cowboy Super Hits
DYEAR=1996
DGENRE=Country
TTITLE0=Cowboy Nightherd Son - Roy Rogers - The Sons of the Pioneers
TTITLE1=Back in the Saddle Again - Gene Autry
TTITLE2=Streets of Laredo - Marty Robbins
TTITLE3=Rawhide - Frankie Laine
TTITLE4=Damn Good Cowboy - The Charlie Daniels Band
TTITLE5=Don't Fence Me In - Leon Russell - Willie Nelson
TTITLE6=Done't Let Your Babies Grow up to Be Cowboys - Gibson/Miller Band
TTITLE7=Even Cowgirls Get the Blues - Johnny Cash - Waylon Jennings
TTITLE8=My Heroes Have Always Been Cowboys - Willie Nelson
TTITLE9=The Last Cowboy Song - Johnny Cash - Kris Kristofferson - Waylon Jennings - Willie Nelson
EXTD=YEAR: 1996
EXTT0=
EXTT1=
EXTT2=
EXTT3=
EXTT4=
EXTT5=
EXTT6=
EXTT7=
EXTT8=
EXTT9=
PLAYORDER=
